<svg width="13" height="12" viewBox="0 0 13 12" fill="none" xmlns="http://www.w3.org/2000/svg">
<path fill-rule="evenodd" clip-rule="evenodd" d="M6.45246 11.901C9.58728 11.901 12.1286 9.35974 12.1286 6.22492C12.1286 3.0901 9.58728 0.548828 6.45246 0.548828C3.31764 0.548828 0.776367 3.0901 0.776367 6.22492C0.776367 9.35974 3.31764 11.901 6.45246 11.901ZM8.34365 6.76028L9.13576 7.5524C9.3338 7.75043 9.3338 8.08991 9.13576 8.31623L8.59826 8.85373C8.03246 9.41954 6.5331 8.79715 5.20347 7.46753C3.87385 6.13791 3.27976 4.63854 3.81727 4.07275L4.35478 3.53524C4.55281 3.33721 4.89229 3.33721 5.1186 3.53524L5.91072 4.32736C6.19362 4.61025 6.08046 5.09118 5.71269 5.20434C5.45808 5.2892 5.28834 5.5721 5.37321 5.82672C5.51466 6.42081 6.27849 7.15634 6.84429 7.29779C7.09889 7.35438 7.38179 7.21293 7.46666 6.95831C7.57982 6.59056 8.06075 6.47739 8.34365 6.76028Z" fill="black"/>
</svg>
