<svg width="13" height="12" viewBox="0 0 13 12" fill="none" xmlns="http://www.w3.org/2000/svg">
<path fill-rule="evenodd" clip-rule="evenodd" d="M6.45246 11.9577C9.58728 11.9577 12.1286 9.41638 12.1286 6.28156C12.1286 3.14674 9.58728 0.605469 6.45246 0.605469C3.31764 0.605469 0.776367 3.14674 0.776367 6.28156C0.776367 9.41638 3.31764 11.9577 6.45246 11.9577ZM4.32324 5.58727C4.32324 4.40498 5.27824 3.44336 6.45178 3.44336C7.62531 3.44336 8.58031 4.40498 8.58031 5.58727C8.58031 7.26715 6.65186 9.00167 6.56979 9.07475C6.53597 9.10455 6.49388 9.11945 6.45178 9.11945C6.40968 9.11945 6.36758 9.10455 6.33376 9.07452C6.2517 9.00167 4.32324 7.26715 4.32324 5.58727ZM5.26926 5.57189C5.26926 6.22394 5.79974 6.75441 6.45178 6.75441C7.10382 6.75441 7.6343 6.22394 7.6343 5.57189C7.6343 4.91985 7.10382 4.38937 6.45178 4.38937C5.79974 4.38937 5.26926 4.91985 5.26926 5.57189Z" fill="black"/>
</svg>
