<svg width="13" height="12" viewBox="0 0 13 12" fill="none" xmlns="http://www.w3.org/2000/svg">
<path fill-rule="evenodd" clip-rule="evenodd" d="M12.1286 6.19562C12.1286 9.33044 9.58728 11.8717 6.45246 11.8717C3.31764 11.8717 0.776367 9.33044 0.776367 6.19562C0.776367 3.0608 3.31764 0.519531 6.45246 0.519531C9.58728 0.519531 12.1286 3.0608 12.1286 6.19562ZM6.92686 6.83503C6.78564 6.92917 6.62161 6.97894 6.45249 6.97894C6.28338 6.97894 6.11935 6.92917 5.97814 6.83503L3.65224 5.28438C3.63933 5.27578 3.62676 5.26681 3.61444 5.25759V7.79849C3.61444 8.08981 3.85086 8.32101 4.13697 8.32101H8.768C9.05933 8.32101 9.29053 8.0846 9.29053 7.79849V5.25758C9.27819 5.26682 9.26559 5.27581 9.25266 5.28443L6.92686 6.83503ZM6.16244 6.55877L3.83653 5.00811C3.69736 4.91537 3.61426 4.76017 3.61426 4.59293C3.61426 4.30464 3.84859 4.07032 4.1366 4.07031H8.76801C9.05602 4.07031 9.29035 4.30463 9.29035 4.59266C9.29035 4.76017 9.20726 4.91537 9.06808 5.00811L6.74217 6.55877C6.65413 6.61746 6.55321 6.64682 6.45229 6.64682C6.35139 6.64682 6.25048 6.61747 6.16244 6.55877Z" fill="black"/>
</svg>
