<svg width="13" height="12" viewBox="0 0 13 12" fill="none" xmlns="http://www.w3.org/2000/svg">
<path fill-rule="evenodd" clip-rule="evenodd" d="M12.1286 6.25227C12.1286 9.38708 9.58728 11.9284 6.45246 11.9284C3.31764 11.9284 0.776367 9.38708 0.776367 6.25227C0.776367 3.11745 3.31764 0.576172 6.45246 0.576172C9.58728 0.576172 12.1286 3.11745 12.1286 6.25227ZM6.55371 9.08612C6.98776 9.02445 7.36827 8.57143 7.60771 7.9024C7.26158 7.82488 6.90836 7.78327 6.55371 7.77832V9.08612ZM7.32364 8.95671C7.29828 8.96494 7.27272 8.97241 7.24706 8.97984L7.22549 8.98633L7.22547 8.98633L7.22545 8.98634L7.22537 8.98636L7.22525 8.9864C7.21124 8.99064 7.19714 8.99491 7.18287 8.99891L7.17054 9.00191L7.1582 9.00491C7.45847 8.71336 7.68131 8.35148 7.80653 7.95215C8.04731 8.01565 8.28036 8.10535 8.50162 8.21962L8.49275 8.22918C8.48112 8.24121 8.4692 8.2529 8.45728 8.26459L8.44386 8.27777L8.4373 8.28423C8.42061 8.30068 8.40388 8.31717 8.38675 8.33315C8.37319 8.34579 8.35931 8.35808 8.34542 8.37038L8.34537 8.37042L8.33534 8.37931L8.32706 8.38666C8.3102 8.40164 8.29341 8.41655 8.276 8.43103C8.25966 8.44464 8.24311 8.45783 8.2265 8.47106L8.2264 8.47114L8.22211 8.47457C8.20175 8.49081 8.18095 8.50701 8.16064 8.52266C8.14221 8.53623 8.12344 8.54971 8.10457 8.56323C8.08357 8.57824 8.06246 8.59324 8.04107 8.60766C8.0219 8.62064 8.00248 8.63322 7.98302 8.6456L7.91738 8.68617C7.89762 8.69806 7.87806 8.7096 7.85775 8.72109C7.83531 8.73387 7.81272 8.7463 7.78999 8.75848C7.76968 8.76933 7.74942 8.77988 7.72911 8.79023C7.70598 8.80192 7.68265 8.81317 7.65922 8.82421C7.63852 8.83387 7.61781 8.84348 7.59696 8.85265L7.52479 8.88306L7.52257 8.88396L7.52256 8.88397L7.52256 8.88397L7.52255 8.88397L7.52254 8.88397L7.52253 8.88398L7.52253 8.88398L7.52252 8.88398L7.52251 8.88399L7.52251 8.88399L7.5225 8.88399L7.52249 8.88399L7.52248 8.884C7.5023 8.8922 7.48216 8.90039 7.46184 8.90812C7.43707 8.91753 7.4122 8.9264 7.38724 8.93502L7.38276 8.93658L7.38265 8.93662C7.36308 8.94347 7.34349 8.95033 7.32364 8.95671ZM9.29026 6.35544H8.07395C8.06934 6.83036 8.00044 7.30245 7.86913 7.75889C8.1369 7.83041 8.39531 7.93324 8.63901 8.06525C9.03913 7.583 9.26817 6.98173 9.29026 6.35544ZM7.87112 6.15235H6.55371V4.93212C6.92991 4.92717 7.30457 4.88249 7.67141 4.79883C7.79875 5.23892 7.86597 5.69422 7.87112 6.15235ZM6.55355 3.42189V4.72969C6.9082 4.72469 7.26142 4.68313 7.60755 4.60561C7.36811 3.93658 6.9876 3.48356 6.55355 3.42189ZM7.67125 7.70901C7.30441 7.62535 6.92975 7.58067 6.55355 7.57567V6.35544H7.87096C7.86581 6.81357 7.79859 7.26892 7.67125 7.70901ZM8.63902 4.44336C8.39532 4.57536 8.13691 4.67819 7.86914 4.74972C8.00045 5.20616 8.06935 5.67825 8.07396 6.15316H9.29027C9.26813 5.52693 9.03909 4.92566 8.63902 4.44336ZM8.49704 4.28318L8.50241 4.28894C8.28095 4.40341 8.04756 4.49317 7.80653 4.55667C7.68126 4.15729 7.45847 3.79545 7.1582 3.50391L7.16913 3.50657C7.17375 3.50766 7.17836 3.50875 7.18292 3.51C7.2023 3.51513 7.22156 3.52078 7.24074 3.52642L7.24657 3.52813C7.27262 3.53566 7.29798 3.54314 7.32334 3.55136C7.34474 3.55829 7.36584 3.56567 7.38694 3.5731C7.41191 3.58172 7.43687 3.59054 7.46149 3.59995C7.48259 3.60797 7.50339 3.61639 7.5243 3.62491L7.54836 3.63488C7.56456 3.64154 7.58074 3.6482 7.59681 3.65533C7.61771 3.66449 7.63832 3.6739 7.65863 3.68356C7.68275 3.6947 7.70628 3.70605 7.72961 3.71784C7.73976 3.72291 7.7499 3.72821 7.76004 3.73351L7.76011 3.73354C7.77023 3.73883 7.78035 3.74412 7.79048 3.74919C7.81342 3.76147 7.83615 3.77406 7.85884 3.78703C7.87865 3.79828 7.89841 3.80987 7.91798 3.82161C7.94032 3.83498 7.96221 3.8488 7.98415 3.86292C8.00342 3.87515 8.02269 3.88763 8.04166 3.90041C8.06326 3.91493 8.08456 3.93013 8.10576 3.94539C8.12443 3.95876 8.143 3.97214 8.16133 3.98595C8.18223 4.00166 8.20304 4.018 8.22335 4.03445L8.23103 4.04057L8.23104 4.04057L8.23104 4.04058L8.23105 4.04058L8.23106 4.04059L8.23106 4.04059L8.23111 4.04063C8.24638 4.05279 8.2617 4.06498 8.27669 4.07764C8.29472 4.09266 8.31231 4.10827 8.32985 4.12384L8.33623 4.1295L8.3571 4.14809L8.35712 4.14811C8.3674 4.15719 8.37763 4.16623 8.38764 4.17556C8.40411 4.19086 8.42012 4.20669 8.43609 4.22247L8.44466 4.23094L8.45803 4.24405L8.45805 4.24407L8.45806 4.24408L8.45808 4.2441L8.4581 4.24412L8.45812 4.24413L8.45817 4.24419L8.45818 4.24419L8.45818 4.2442C8.47011 4.25585 8.48206 4.26754 8.49369 4.27953L8.49704 4.28318ZM3.61426 6.15316H4.83057C4.83518 5.67825 4.90408 5.20616 5.03534 4.74972C4.76762 4.67824 4.50921 4.57541 4.26551 4.44336C3.86539 4.92561 3.63635 5.52693 3.61426 6.15316ZM6.35087 7.77832V9.08612C5.91682 9.02445 5.53626 8.57143 5.29688 7.9024C5.64301 7.82488 5.99622 7.78332 6.35087 7.77832ZM6.35078 6.35544H5.03337C5.03852 6.81357 5.10569 7.26892 5.23309 7.70901C5.59992 7.6253 5.97454 7.58062 6.35078 7.57567V6.35544ZM5.29688 4.6056C5.53626 3.93657 5.91682 3.48354 6.35087 3.42188V4.72968C5.99622 4.72472 5.64301 4.68317 5.29688 4.6056ZM6.35061 4.93212C5.97442 4.92717 5.59975 4.88249 5.23292 4.79883C5.10552 5.23892 5.03835 5.69422 5.0332 6.15235H6.35061V4.93212ZM5.73394 3.50704L5.74627 3.50405C5.44616 3.79545 5.22346 4.15708 5.09824 4.55621C4.85747 4.49271 4.62437 4.40301 4.40316 4.28869L4.40816 4.28329L4.41197 4.27913C4.42343 4.26728 4.4352 4.25575 4.44694 4.24425L4.44696 4.24424L4.44697 4.24422L4.46101 4.23044L4.4691 4.22247L4.46912 4.22245L4.46912 4.22245C4.48523 4.20656 4.50137 4.19066 4.51787 4.17526C4.53004 4.16377 4.54248 4.15279 4.55495 4.14179L4.55496 4.14178L4.56963 4.1288L4.5783 4.1211L4.57831 4.1211L4.57831 4.1211C4.59493 4.10634 4.61147 4.09165 4.62877 4.07738C4.64333 4.06507 4.65826 4.05317 4.67317 4.04128L4.67317 4.04128L4.67318 4.04128L4.68262 4.03375L4.70709 4.0145C4.71938 4.00477 4.73156 3.99512 4.74409 3.9857C4.76256 3.97208 4.78133 3.9586 4.80021 3.94508C4.82121 3.93007 4.84231 3.91507 4.86371 3.90065C4.88288 3.88767 4.90224 3.87509 4.92176 3.86261L4.92997 3.85747C4.94895 3.84559 4.96803 3.83365 4.98729 3.82204C5.00686 3.81016 5.02682 3.79852 5.04712 3.78717C5.06951 3.77439 5.09205 3.76191 5.11479 3.74973C5.13504 3.73893 5.15535 3.72833 5.17566 3.71798C5.19879 3.70629 5.22212 3.69504 5.24555 3.684C5.26626 3.67434 5.28691 3.66473 5.30781 3.65557L5.37993 3.62515C5.40093 3.61653 5.42184 3.60811 5.44304 3.59999C5.46546 3.59149 5.48813 3.58349 5.51079 3.57549L5.51729 3.57319L5.52238 3.57142L5.52238 3.57142L5.52239 3.57142C5.54189 3.56462 5.56141 3.55782 5.58123 3.5514C5.60679 3.54328 5.63205 3.5358 5.65751 3.52837L5.67413 3.52353C5.68992 3.51891 5.70568 3.5143 5.72161 3.51004L5.73394 3.50704ZM4.46023 8.27767L4.47085 8.28815L4.47087 8.28816C4.48618 8.30328 4.50152 8.31842 4.51724 8.3331C4.52727 8.34239 4.53747 8.35139 4.54772 8.36045L4.56871 8.37912L4.57109 8.38124C4.58996 8.39802 4.60885 8.41482 4.62825 8.43098C4.64556 8.4455 4.6632 8.45954 4.6809 8.47362L4.68093 8.47364L4.68159 8.47417C4.7019 8.49061 4.72216 8.50696 4.74366 8.52276C4.75565 8.53177 4.76778 8.54058 4.77995 8.54942L4.79908 8.56338C4.82028 8.57858 4.84168 8.59379 4.86328 8.6084C4.88225 8.62118 4.90152 8.63366 4.92078 8.64595C4.94273 8.66001 4.96462 8.67383 4.98696 8.68721C5.00652 8.699 5.02629 8.71054 5.0461 8.72183C5.06879 8.73481 5.09152 8.74739 5.11446 8.75962C5.12443 8.76462 5.13442 8.76984 5.14441 8.77506C5.15471 8.78044 5.16502 8.78582 5.17533 8.79098C5.19866 8.80277 5.22219 8.81411 5.24631 8.8253C5.26662 8.83486 5.28722 8.84427 5.30813 8.85349C5.32446 8.86073 5.34088 8.86749 5.35735 8.87426L5.35743 8.8743L5.38064 8.8839C5.40154 8.89242 5.42235 8.90084 5.44345 8.90886C5.46807 8.91833 5.49303 8.92714 5.51799 8.93576L5.5225 8.93734L5.52271 8.93741C5.54224 8.94425 5.56179 8.95109 5.58159 8.95746C5.60696 8.96568 5.63232 8.97321 5.65837 8.98069L5.6647 8.98254L5.66477 8.98256C5.68375 8.98814 5.70282 8.99374 5.72197 8.99887C5.72649 9.00009 5.73105 9.00117 5.7356 9.00224L5.73566 9.00226L5.74674 9.00496C5.44647 8.71336 5.22367 8.35153 5.09841 7.95215C4.85763 8.0157 4.62453 8.1054 4.40332 8.21977L4.4083 8.2251L4.41209 8.22918C4.42726 8.24559 4.44361 8.2615 4.46011 8.27756L4.46023 8.27767ZM5.03553 7.75889C4.7678 7.83041 4.50939 7.93324 4.2657 8.06525C3.86557 7.58295 3.63659 6.98168 3.61444 6.35544H4.83076C4.83537 6.83036 4.90427 7.30245 5.03553 7.75889Z" fill="black"/>
</svg>
