<svg width="130" height="44" viewBox="0 0 130 44" fill="none" xmlns="http://www.w3.org/2000/svg">
<g clip-path="url(#clip0_1039_3653)">
<path d="M108.122 14.6947C107.823 14.3964 107.674 14.0299 107.674 13.5953C107.674 13.4731 107.71 13.2288 107.785 12.8634C107.86 12.4969 108.102 11.9477 108.51 11.2148C108.795 10.7131 109.203 10.4288 109.733 10.3596C109.828 10.3466 109.917 10.3391 109.998 10.3391C110.434 10.3391 110.851 10.4548 111.253 10.685C111.654 10.9164 111.867 11.2418 111.895 11.6612V11.7023H111.854L111.773 11.6818C111.568 11.6818 111.331 11.8612 111.059 12.2212C110.787 12.5802 110.501 13.0526 110.203 13.6353C110.162 13.7034 110.121 13.778 110.081 13.8591C109.849 14.3877 109.591 14.7748 109.305 15.018C109.197 15.1131 109.081 15.1607 108.958 15.1607C108.714 15.1607 108.435 15.005 108.122 14.6926V14.6947ZM130 20.5748C129.116 22.1618 127.944 23.7693 126.482 25.3964C125.021 27.0245 123.509 28.4018 121.945 29.5272C121.198 31.2234 120.484 32.8775 119.805 34.4915C118.636 37.232 117.717 39.3066 117.052 40.7185C116.535 41.7629 115.93 42.5499 115.237 43.0785C114.544 43.6083 113.865 43.8991 113.199 43.9531H112.954C112.383 43.9531 111.887 43.7704 111.465 43.4039C111.044 43.0375 110.833 42.4472 110.833 41.6342C110.833 40.3996 111.21 39.1175 111.965 37.7888C112.72 36.4591 113.677 35.1975 114.84 34.0039C116.001 32.8104 117.235 31.7661 118.539 30.871C118.824 30.1791 119.138 29.4331 119.478 28.6331C119.817 27.7791 120.184 26.8969 120.578 25.9877C120.333 26.3672 119.915 26.9607 119.324 27.7683C118.733 28.5747 118.118 29.325 117.479 30.0169C116.839 30.7088 116.324 31.0753 115.929 31.1164C115.222 31.1034 114.715 30.8796 114.41 30.445C114.104 30.0115 113.95 29.4342 113.95 28.7164C113.95 27.8602 114.121 26.8666 114.447 25.7477C113.291 26.7488 112.261 27.5175 111.361 28.045C111.388 28.3704 111.401 28.7023 111.401 29.0418C111.401 30.6148 111.106 32.3856 110.514 34.3521C109.923 36.3185 109.172 38.1434 108.262 39.8256C107.352 41.5077 106.576 42.565 105.938 42.9996C105.733 43.1218 105.49 43.1823 105.204 43.1823C105.068 43.1823 104.843 43.152 104.531 43.0904C104.218 43.0299 103.885 42.8364 103.532 42.511C103.219 42.2396 103.063 41.9012 103.063 41.4937L103.083 41.3099C103.667 38.271 104.973 34.2904 106.998 29.3661C106.767 29.191 106.652 28.9737 106.652 28.7153C106.652 28.6072 106.7 28.4202 106.795 28.1553C106.89 27.8904 107.223 27.6569 107.794 27.4537C108.221 26.445 108.643 25.4612 109.062 24.4991C108.091 25.9726 107.074 27.3834 106.01 28.725C104.819 30.2245 103.892 31.0277 103.226 31.1358H103.125C102.487 31.1358 101.976 30.871 101.595 30.3423C101.351 30.0029 101.229 29.4948 101.229 28.8158C101.229 28.3953 101.276 27.9077 101.372 27.351C101.567 26.3931 101.84 25.4115 102.178 24.4104C101.169 25.3715 100.118 26.0958 99.0264 26.5769C97.6397 28.9239 96.3354 30.3888 95.1123 30.9715C94.8534 31.0666 94.5956 31.1142 94.3367 31.1142C94.0106 31.1142 93.6401 31.0126 93.2252 30.8093C92.8102 30.6061 92.5351 30.2331 92.3997 29.6904C92.3715 29.5823 92.3585 29.4807 92.3585 29.3856C92.3585 28.938 92.5892 28.4699 93.0518 27.9812C93.5545 27.4115 94.5739 26.9845 96.1112 26.6991C96.3148 26.3466 96.6203 25.7391 97.0277 24.8785C97.435 24.0169 97.8337 23.098 98.2204 22.1207C98.6083 21.1445 98.8704 20.3099 99.0058 19.618C99.047 19.4277 99.0676 19.2645 99.0676 19.1293C99.0676 18.7639 98.9387 18.5802 98.6797 18.5802C98.3948 18.5802 97.8716 18.9131 97.11 19.5769C96.3484 20.2418 95.2748 21.3466 93.8882 22.8937C93.0453 24.698 92.1992 26.6861 91.3499 28.8558C90.5006 31.0266 89.7531 33.1283 89.1063 35.1629C88.4618 37.1975 88.0295 38.9131 87.8117 40.3099C87.7435 40.7845 87.7099 41.1985 87.7099 41.551C87.7099 42.2288 87.8453 42.6558 88.1172 42.8331C88.1302 42.8331 88.1378 42.8396 88.1378 42.8537C88.1378 42.8677 88.1302 42.8807 88.1172 42.8937C87.9407 43.0699 87.6817 43.1585 87.3416 43.1585C87.2192 43.1585 86.9917 43.1283 86.6591 43.0677C86.3254 43.0061 85.9495 42.8126 85.5281 42.4883C85.1749 42.2169 84.9983 41.8904 84.9983 41.511C84.9983 41.4429 85.0048 41.3683 85.0178 41.2872C85.2497 38.9942 85.9018 36.2504 86.9754 33.0558C87.8237 30.5315 88.7499 28.0731 89.7466 25.6764C89.635 25.8375 89.5278 25.9942 89.4118 26.1585C88.4943 27.4677 87.5972 28.6072 86.7197 29.5769C85.8433 30.5477 85.1402 31.0591 84.6094 31.1131H84.5487C84.2357 31.1131 83.9172 31.018 83.5911 30.8288C83.265 30.6385 83.0202 30.272 82.8566 29.7293C82.7883 29.4991 82.7547 29.2202 82.7547 28.8948C82.7547 28.4612 82.8154 27.9456 82.9378 27.3488C83.2238 26.1683 83.7167 24.711 84.4166 22.9737C85.1164 21.2375 85.7588 19.9088 86.3438 18.9856C85.9896 19.311 85.3775 20.0169 84.5087 21.1023C83.6387 22.1877 82.7071 23.3737 81.7158 24.6634C80.7235 25.952 79.8666 27.071 79.1473 28.0202C79.1061 28.0742 79.066 28.1218 79.0248 28.1629C78.8071 28.4472 78.637 28.6785 78.5146 28.8548C78.3369 29.0991 78.2058 29.272 78.117 29.3737C78.0282 29.4753 77.9567 29.5261 77.9025 29.5261H77.8202C77.766 29.5261 77.7053 29.5196 77.6371 29.5056C77.597 29.4926 77.5482 29.4785 77.4941 29.4656C76.6372 29.2353 76.2092 28.8072 76.2092 28.1834C76.2092 28.1564 76.2125 27.9769 76.219 27.6439C76.2255 27.311 76.3717 26.8126 76.6577 26.1488C76.9708 25.2537 77.4247 24.0937 78.0238 22.6699C78.6218 21.2461 79.1321 20.1066 79.5524 19.2515C78.7237 20.1337 77.6663 21.4418 76.3826 23.178C75.0977 24.9153 73.8573 26.725 72.6613 28.6104C72.5389 29.1802 72.4783 29.6407 72.4783 29.9942C72.4783 30.4018 72.5595 30.6656 72.722 30.7877C72.735 30.8018 72.7458 30.8115 72.7523 30.818C72.7599 30.8245 72.7556 30.8353 72.7426 30.8483C72.553 31.0256 72.2941 31.1131 71.9669 31.1131C71.8445 31.1131 71.6137 31.0829 71.2736 31.0212C70.9345 30.9607 70.5737 30.7672 70.1935 30.4418C69.8945 30.1975 69.745 29.9066 69.745 29.5672C69.745 29.4591 69.758 29.3499 69.7862 29.2418C70.0765 27.6861 70.4903 26.1456 71.0147 24.6202C70.6593 25.1369 70.2867 25.6699 69.888 26.2299C68.9498 27.5466 68.0387 28.6991 67.1558 29.6893C66.2718 30.6796 65.5861 31.1748 65.0964 31.1748C64.3478 31.1748 63.8387 30.951 63.5667 30.5034C63.349 30.111 63.2407 29.6353 63.2407 29.0796C63.2407 28.9845 63.2504 28.7445 63.271 28.3575C63.2916 27.9704 63.4032 27.405 63.6068 26.658C62.8052 27.9196 61.9959 28.9877 61.1802 29.8623C60.3644 30.7369 59.6104 31.1748 58.9171 31.1748C58.2649 31.0115 57.7958 30.6526 57.5098 30.0958C57.2249 29.5402 57.0819 28.8612 57.0819 28.0612C57.0819 27.4148 57.1545 26.7283 57.2953 26.0039C57.2607 26.0526 57.2292 26.0991 57.1935 26.1488C56.2618 27.4645 55.3551 28.6137 54.4711 29.5975C53.5871 30.5812 52.8742 31.1002 52.3304 31.1542C52.2632 31.1683 52.195 31.1748 52.1267 31.1748C51.8949 31.1748 51.6544 31.1175 51.4031 31.0018C51.1517 30.8872 50.934 30.6558 50.7509 30.3099C50.5667 29.9639 50.4747 29.4861 50.4747 28.8753C50.4747 27.8991 50.7942 26.5056 51.4334 24.6937C52.0726 22.8829 52.8504 20.9737 53.768 18.9661C54.6856 16.9585 55.5858 15.1077 56.4698 13.4115H56.225C55.5587 13.4115 54.7907 13.4591 53.9207 13.5542C53.1321 15.0602 52.1668 16.4029 51.025 17.5823C49.8832 18.7629 48.7283 19.3996 47.5594 19.4948C46.3082 19.4948 45.3364 19.2342 44.6431 18.711C43.9497 18.1888 43.5424 17.5683 43.42 16.8493C43.4059 16.7142 43.3994 16.5845 43.3994 16.4634C43.3994 15.8666 43.5955 15.311 43.9909 14.7942C44.6702 14.0083 45.7232 13.3737 47.151 12.8915C48.5777 12.4104 50.0327 12.1012 51.5147 11.9661C52.195 10.6504 52.5752 9.47097 52.6565 8.42556C52.6695 8.31745 52.6771 8.22232 52.6771 8.14016C52.6771 7.38124 52.2957 7.0007 51.5352 7.0007C51.2633 7.0007 50.9437 7.04826 50.5765 7.1434C48.8497 7.60502 47.1109 8.59529 45.357 10.1142C43.6042 11.6342 42.1492 13.3369 40.9944 15.2212C39.8656 17.0526 39.3012 18.7348 39.3012 20.2677V20.431C39.3824 21.3131 39.8342 22.0688 40.6575 22.7002C41.4797 23.3304 42.4147 23.925 43.4612 24.4807C44.5477 25.0375 45.4924 25.6342 46.2952 26.271C47.0968 26.9088 47.5052 27.6753 47.5182 28.5704C47.4229 29.5607 46.7328 30.5575 45.4491 31.5607C44.1642 32.565 42.6216 33.4266 40.8211 34.1445C39.0195 34.8634 37.3046 35.2969 35.6731 35.4472C35.36 35.4742 35.0621 35.4872 34.7761 35.4872C33.5801 35.4872 32.6549 35.2093 32.0027 34.6526C31.187 33.8656 30.7797 32.991 30.7797 32.0277C30.7797 31.8915 30.8165 31.5056 30.8912 30.8677C30.966 30.2299 31.7785 29.4158 33.3277 28.4266C33.9387 28.0602 34.7717 27.6839 35.8258 27.2969C36.8788 26.911 37.9297 26.6493 38.9762 26.5131C39.2622 26.4731 39.5265 26.4526 39.7713 26.4526C40.4517 26.4526 41.002 26.5888 41.4234 26.8602C41.925 27.2537 42.2316 27.7488 42.3399 28.3456C42.3529 28.4266 42.3605 28.5077 42.3605 28.5899C42.3605 28.7531 42.3139 28.9358 42.2175 29.1402C42.1222 29.3434 41.8437 29.5672 41.3812 29.8115H41.3205V29.7196C41.3205 29.7002 41.34 29.6688 41.3812 29.6288C41.626 29.4526 41.8026 29.2688 41.9109 29.0785C41.9521 28.9975 41.9727 28.9229 41.9727 28.8548C41.9727 28.7466 41.9315 28.6375 41.8502 28.5293C41.5242 28.2039 41.0204 28.0407 40.3412 28.0407C40.0692 28.0407 39.5633 28.0991 38.8223 28.2137C38.0813 28.3283 37.1063 28.631 35.8962 29.1185C34.6862 29.6072 33.7892 30.0818 33.2052 30.5423C32.5661 31.058 32.1587 31.458 31.9822 31.7423C31.8868 31.9056 31.8392 32.0472 31.8392 32.1693C31.8392 32.2645 31.8868 32.3661 31.9822 32.4742C32.0775 32.5823 32.2877 32.671 32.6137 32.7391C32.968 32.8202 33.3883 32.8612 33.878 32.8612C34.5843 32.8612 35.5875 32.7531 36.8853 32.5358C38.1832 32.3185 39.624 31.858 41.2078 31.1521C42.7917 30.4472 43.9367 29.538 44.6431 28.4256C44.7926 28.1402 44.8673 27.8688 44.8673 27.6115C44.8673 27.1499 44.5824 26.6688 44.0104 26.1672C43.4395 25.6656 42.5837 25.1164 41.4418 24.5196C40.4495 23.9899 39.5178 23.4104 38.6479 22.7802C37.778 22.1499 37.18 21.4137 36.8539 20.5726C36.7174 20.111 36.6492 19.6299 36.6492 19.1283C36.6492 18.0299 37.037 16.6872 37.8116 15.1002C38.5872 13.5131 39.793 11.8818 41.431 10.2072C43.069 8.53151 44.7514 7.26664 46.4772 6.41259C47.5919 5.91097 48.7337 5.66016 49.9027 5.66016C50.1746 5.66016 50.7357 5.69799 51.5851 5.77151C52.4344 5.8461 53.3076 6.29799 54.2046 7.12502C54.8849 7.74881 55.224 8.55637 55.224 9.54664C55.224 9.85908 55.1893 10.191 55.1222 10.5434C55.0409 10.9239 54.9109 11.3304 54.7343 11.7639C55.523 11.7099 56.2705 11.6829 56.9779 11.6829H57.4058C57.8403 10.8969 58.214 10.2591 58.5271 9.77043C58.7578 9.39097 59.098 9.2007 59.5465 9.2007C59.5866 9.2007 59.7426 9.21475 60.0156 9.24178C60.2875 9.2688 60.6482 9.43529 61.0967 9.74016C61.5452 10.045 61.7695 10.3737 61.7695 10.7272C61.7695 10.7402 61.7619 10.751 61.7489 10.7575C61.7359 10.765 61.7207 10.7672 61.7077 10.7672C61.6807 10.7542 61.6536 10.7466 61.6265 10.7466C61.3546 10.7466 60.9667 11.1002 60.4641 11.805C62.9113 11.8191 65.4626 11.9953 68.1211 12.3348C70.7785 12.6742 72.943 13.0537 74.6157 13.4742C74.7641 13.5142 74.8399 13.5423 74.8399 13.5553H74.6157C71.448 13.2429 68.5934 13.0872 66.0519 13.0872C63.5104 13.0872 61.3557 13.1348 59.5476 13.2299C58.5682 14.912 57.5932 16.8515 56.6215 19.0493C55.6497 21.2472 54.8275 23.271 54.1547 25.1229C53.482 26.9748 53.1451 28.1304 53.1451 28.5921C53.1451 28.7002 53.1787 28.7553 53.2469 28.7553C53.3953 28.7553 53.7431 28.4872 54.2869 27.951C54.8307 27.4158 55.5447 26.6353 56.4276 25.6115C56.9227 25.0385 57.3928 24.4839 57.8489 23.9412C57.9063 23.7704 57.9648 23.5985 58.0287 23.4245C58.6603 21.7023 59.4057 20.1758 60.2615 18.8461C61.1173 17.5175 61.9266 16.6893 62.6871 16.3639C62.972 16.2688 63.245 16.2212 63.5039 16.2212C64.1149 16.2212 64.7021 16.5304 65.2676 17.1466C65.8309 17.7639 66.2296 18.6148 66.4603 19.7002C66.7322 19.1985 66.9977 18.7175 67.2555 18.2558C67.4862 17.8623 67.834 17.6656 68.2955 17.6656C68.3367 17.6656 68.4894 17.6731 68.7537 17.6861C69.0192 17.6991 69.3788 17.8558 69.8349 18.1542C70.2899 18.4526 70.5174 18.7845 70.5174 19.151V19.1715C70.5033 19.1845 70.4871 19.1953 70.4665 19.2018C70.447 19.2093 70.4232 19.2115 70.395 19.2115C70.0548 19.2256 69.6377 19.6429 69.1416 20.4634C68.6454 21.2839 68.1525 22.271 67.6639 23.4234C67.1743 24.5769 66.7593 25.658 66.4202 26.6688C66.0801 27.6796 65.9111 28.3412 65.9111 28.6526C65.9111 28.7337 65.9371 28.7748 65.9923 28.7748C66.1288 28.7748 66.4787 28.4969 67.0421 27.9402C67.6065 27.3845 68.3334 26.5942 69.2239 25.5704C70.1144 24.5466 70.9432 23.5737 71.7113 22.6504C71.7448 22.6104 71.7741 22.5748 71.8066 22.5358C72.6505 20.5056 73.5919 18.5748 74.6373 16.7499C74.8681 16.3564 75.2147 16.1596 75.6773 16.1596C75.7055 16.1596 75.8507 16.1629 76.1161 16.1693C76.3804 16.1769 76.7271 16.3218 77.1561 16.6072C77.584 16.8926 77.8256 17.2245 77.8797 17.6039C77.8797 17.618 77.8765 17.631 77.87 17.6439C77.8624 17.658 77.8527 17.672 77.8397 17.685H77.7584C77.4042 17.698 76.7791 18.5056 75.8821 20.1066C74.9851 21.7066 74.0946 23.8645 73.2117 26.5769C74.204 24.9077 75.3621 23.1553 76.6881 21.3175C78.013 19.4796 79.2534 18.045 80.4082 17.0137C80.8427 16.6342 81.224 16.3834 81.5501 16.2612C81.7137 16.2072 81.8827 16.1802 82.0603 16.1802C82.277 16.1802 82.5023 16.2137 82.7331 16.2818C83.1133 16.4039 83.4329 16.5866 83.6908 16.832C83.9486 17.0764 84.0916 17.3337 84.1187 17.605V17.645C84.1187 17.6591 84.1111 17.6731 84.0981 17.6861H83.9962C83.8056 17.7131 83.4492 18.1639 82.9259 19.0396C82.4027 19.9142 81.8274 20.9899 81.2034 22.2645C80.5783 23.5402 80.0269 24.7942 79.5513 26.0288C79.6737 25.8526 79.8157 25.6493 79.9792 25.4191C80.6726 24.4429 81.549 23.245 82.6096 21.8277C83.6691 20.4104 84.7394 19.1358 85.8206 18.0029C86.9017 16.871 87.7955 16.2429 88.5018 16.1207H88.6448C89.1204 16.1207 89.5559 16.2493 89.9502 16.5066C90.2222 16.6839 90.3576 16.9002 90.3576 17.1575C90.3576 17.3066 90.3099 17.4699 90.2146 17.6461C90.0792 17.8634 89.6978 18.538 89.0728 19.671C88.4477 20.8039 87.7814 22.1639 87.0751 23.7499C86.3687 25.3369 85.8249 26.911 85.4447 28.471V28.5726C85.4447 28.6537 85.4717 28.6947 85.5259 28.6947C85.6072 28.6947 85.7978 28.5629 86.0968 28.298C86.3958 28.0331 86.8747 27.5391 87.5344 26.8126C88.1942 26.0872 88.8767 25.3034 89.5841 24.4623C90.09 23.8591 90.5602 23.298 90.9978 22.7758C92.1234 20.2612 93.1136 18.2515 93.9683 16.751C94.185 16.3575 94.5252 16.1607 94.9877 16.1607C95.0148 16.1607 95.1611 16.1639 95.4265 16.1704C95.6908 16.178 96.0407 16.3229 96.4762 16.6083C96.9107 16.8937 97.149 17.2256 97.1902 17.605V17.645C97.1902 17.6591 97.1772 17.6731 97.149 17.6861H97.0677C96.6734 17.7402 96.0072 18.6699 95.0701 20.4742C95.953 19.3477 96.8955 18.351 97.8932 17.4829C98.8921 16.6148 99.6981 16.1802 100.309 16.1802C101.233 16.4245 101.75 17.0483 101.858 18.0526C101.871 18.2288 101.879 18.4115 101.879 18.6018C101.879 19.4839 101.678 20.5315 101.278 21.7456C100.876 22.9596 100.336 24.1899 99.6569 25.4385C100.859 24.6634 101.846 23.9023 102.631 23.152C102.789 22.7477 102.952 22.3402 103.132 21.9283C103.954 20.0493 104.807 18.3369 105.691 16.791C105.922 16.3985 106.269 16.2018 106.731 16.2018C106.758 16.2018 106.904 16.205 107.17 16.2115C107.435 16.2191 107.788 16.3683 108.23 16.6591C108.672 16.951 108.914 17.2872 108.954 17.6666V17.7066C108.954 17.7207 108.944 17.7304 108.924 17.7369C108.904 17.7445 108.873 17.7466 108.833 17.7466C108.384 17.8277 107.616 18.9131 106.529 21.0018C105.441 23.0915 104.531 25.5672 103.796 28.4288C103.782 28.4829 103.776 28.5304 103.776 28.5715C103.776 28.6937 103.816 28.7542 103.898 28.7542C103.98 28.7542 104.167 28.6385 104.459 28.4083C104.752 28.178 105.234 27.6958 105.907 26.9639C106.579 26.231 107.283 25.432 108.017 24.5629C108.752 23.6948 109.407 22.9045 109.985 22.192C110.061 22.0991 110.125 22.0191 110.194 21.9337C111.124 19.8569 112.033 17.8958 112.92 16.058C114.558 12.6666 115.643 10.5639 116.172 9.74989C116.403 9.37043 116.743 9.18016 117.192 9.18016C117.232 9.18016 117.388 9.18989 117.661 9.21043C117.933 9.23097 118.286 9.39313 118.721 9.69908C119.156 10.0039 119.388 10.3402 119.415 10.7066C119.415 10.7207 119.407 10.7304 119.394 10.7369C119.381 10.7434 119.367 10.7466 119.354 10.7466H119.335C118.98 10.7466 118.373 11.4829 117.509 12.9542C116.646 14.4266 115.644 16.3726 114.502 18.7942C113.361 21.2158 112.212 23.8029 111.057 26.5564C111.07 26.5834 111.087 26.631 111.108 26.6991C111.128 26.7672 111.149 26.8385 111.168 26.9131C111.189 26.9877 111.205 27.0385 111.219 27.0656C112.655 26.1564 113.866 25.2991 114.856 24.4958C115.352 23.1056 115.914 21.7402 116.55 20.4018C117.236 18.9575 117.866 17.7402 118.437 16.7488C118.667 16.3553 119.014 16.1585 119.476 16.1585C119.517 16.1585 119.67 16.1661 119.935 16.1791C120.2 16.1931 120.56 16.3488 121.015 16.6472C121.471 16.9456 121.698 17.2775 121.698 17.6439C121.698 17.658 121.695 17.6677 121.689 17.6742C121.681 17.6807 121.671 17.6915 121.657 17.7045H121.576C121.25 17.7326 120.811 18.2061 120.261 19.1283C119.709 20.0515 119.149 21.1596 118.578 22.4558C118.007 23.751 117.521 24.9823 117.121 26.1488C116.719 27.3153 116.52 28.0947 116.52 28.4883C116.52 28.5423 116.54 28.5693 116.581 28.5693C116.703 28.5693 117.009 28.3488 117.498 27.9077C117.988 27.4666 118.623 26.8288 119.405 25.9953C120.186 25.1607 120.937 24.3304 121.657 23.5023C122.513 21.6029 123.173 20.1931 123.635 19.2699C124.097 18.3477 124.545 17.5066 124.981 16.7466C125.212 16.3531 125.558 16.1564 126.021 16.1564C126.061 16.1564 126.215 16.1639 126.479 16.1769C126.743 16.191 127.104 16.3466 127.56 16.645C128.015 16.9434 128.243 17.2688 128.243 17.6223C128.243 17.6353 128.24 17.6493 128.233 17.6623C128.225 17.6764 128.216 17.6861 128.203 17.6926C128.189 17.6991 128.163 17.7023 128.121 17.7023C127.659 17.7434 126.993 18.6277 126.124 20.3575C125.254 22.0872 124.268 24.2072 123.167 26.7164L122.719 27.7337C124.391 26.4861 125.788 25.2385 126.909 23.9899C128.03 22.7423 128.85 21.765 129.366 21.0602C129.53 20.8569 129.659 20.6937 129.754 20.5715H129.999L130 20.5748ZM50.1551 14.165C48.1845 14.4634 46.7837 14.8602 45.955 15.3553C45.1252 15.8504 44.6702 16.2948 44.5889 16.6883C44.5618 16.7834 44.5488 16.871 44.5488 16.9531C44.5488 17.2926 44.7731 17.4623 45.2216 17.4623C45.2346 17.4623 45.3917 17.4591 45.6907 17.4526C45.9897 17.4461 46.5942 17.1683 47.5052 16.618C48.4163 16.0677 49.2992 15.2515 50.1562 14.1661L50.1551 14.165ZM66.2014 20.2083C65.5623 18.9877 64.9372 18.3769 64.3251 18.3769C64.2839 18.3769 64.1008 18.3942 63.7747 18.4277C63.4487 18.4623 63.0164 18.9293 62.4802 19.832C61.9428 20.7348 61.4737 21.792 61.0729 23.0061C60.6721 24.2202 60.359 25.3434 60.1358 26.3737C59.9116 27.405 59.8 28.0429 59.8 28.2872C59.8 28.5996 59.8942 28.7553 60.0849 28.7553C60.0979 28.7553 60.1662 28.7456 60.2886 28.725C60.411 28.7056 60.6493 28.5499 61.0025 28.2569C61.3557 27.965 61.7327 27.6093 62.1346 27.1888C62.5354 26.7683 62.9157 26.351 63.2764 25.938C63.6361 25.5239 63.9318 25.1748 64.1626 24.8893C64.584 23.6418 65.2632 22.0818 66.2014 20.2093V20.2083ZM95.3994 27.778C95.0452 27.8321 94.692 27.951 94.3388 28.1337C93.9857 28.3164 93.7278 28.5034 93.5642 28.6937C93.496 28.7748 93.4624 28.8429 93.4624 28.8969C93.4624 28.978 93.5242 29.0396 93.6466 29.0796H93.769C93.9997 29.0796 94.2554 28.9683 94.5338 28.7445C94.8122 28.5207 95.1015 28.1985 95.4016 27.778H95.3994ZM110.813 28.4083C110.596 28.5715 110.358 28.7272 110.099 28.8764C108.278 33.3391 106.993 36.9953 106.246 39.8439L106.206 40.0072C106.164 40.1153 106.138 40.2104 106.124 40.2926V40.4753C106.138 40.4883 106.151 40.4958 106.164 40.4958C106.193 40.4958 106.239 40.472 106.307 40.4245C106.376 40.3769 106.492 40.258 106.654 40.0688C107.13 39.5672 107.701 38.7261 108.367 37.5456C109.033 36.3661 109.618 34.9748 110.12 33.3748C110.582 31.9099 110.813 30.3834 110.813 28.7964V28.4104V28.4083ZM117.807 32.5791C116.19 33.9488 114.833 35.4656 113.739 37.1261C112.645 38.7877 112.098 40.1066 112.098 41.0839C112.098 41.5315 112.2 41.8775 112.403 42.1218C112.499 42.2299 112.615 42.285 112.75 42.285C112.914 42.285 113.141 42.1791 113.433 41.9693C113.725 41.7585 114.13 41.138 114.646 40.1077C114.986 39.3477 115.584 37.9369 116.44 35.8753C116.861 34.858 117.316 33.7596 117.806 32.5791H117.807Z" fill="white"/>
<path d="M10.1432 25.7237L2.55233 16.582L0 23.5485L9.40875 34.8793L23.9222 32.2772L26.4745 25.3107L14.7647 27.4101C13.0325 27.7204 11.2667 27.0761 10.1432 25.7237Z" fill="white"/>
<path d="M22.1715 0.046875L7.65811 2.64904L5.10577 9.61552L16.8155 7.51606C18.5478 7.20579 20.3136 7.85012 21.437 9.20255L29.0279 18.3442L31.5803 11.3777L22.1715 0.046875Z" fill="white"/>
<path d="M5.10468 9.61384L14.5134 20.9447L23.9222 32.2755L26.4745 25.309L17.0658 13.9782L7.65701 2.64844L5.10468 9.61384Z" fill="white"/>
</g>
<defs>
<clipPath id="clip0_1039_3653">
<rect width="130" height="44" fill="white"/>
</clipPath>
</defs>
</svg>
