<svg width="131" height="44" viewBox="0 0 131 44" fill="none" xmlns="http://www.w3.org/2000/svg">
<g clip-path="url(#clip0_1009_5143)">
<path d="M108.954 14.6948C108.652 14.3964 108.502 14.0299 108.502 13.5953C108.502 13.4731 108.539 13.2288 108.614 12.8634C108.69 12.4969 108.933 11.9477 109.345 11.2148C109.632 10.7131 110.043 10.4288 110.577 10.3596C110.673 10.3466 110.763 10.3391 110.845 10.3391C111.283 10.3391 111.704 10.4548 112.109 10.685C112.513 10.9164 112.728 11.2418 112.756 11.6612V11.7023H112.715L112.633 11.6818C112.426 11.6818 112.187 11.8612 111.913 12.2212C111.639 12.5802 111.351 13.0526 111.051 13.6353C111.009 13.7034 110.968 13.778 110.928 13.8591C110.694 14.3877 110.434 14.7748 110.146 15.018C110.037 15.1131 109.92 15.1607 109.797 15.1607C109.55 15.1607 109.269 15.005 108.954 14.6926V14.6948ZM131 20.5748C130.109 22.1618 128.928 23.7693 127.455 25.3964C125.983 27.0245 124.459 28.4018 122.883 29.5272C122.13 31.2234 121.411 32.8775 120.726 34.4915C119.548 37.232 118.623 39.3066 117.952 40.7185C117.432 41.7629 116.821 42.5499 116.124 43.0785C115.425 43.6083 114.741 43.8991 114.069 43.9531H113.823C113.247 43.9531 112.747 43.7704 112.323 43.4039C111.898 43.0375 111.685 42.4472 111.685 41.6342C111.685 40.3996 112.065 39.1175 112.826 37.7888C113.587 36.4591 114.552 35.1975 115.723 34.0039C116.893 32.8104 118.137 31.7661 119.451 30.871C119.738 30.1791 120.055 29.4331 120.397 28.6331C120.738 27.7791 121.108 26.8969 121.506 25.9877C121.259 26.3672 120.838 26.9607 120.242 27.7683C119.647 28.5747 119.027 29.325 118.383 30.0169C117.737 30.7088 117.219 31.0753 116.82 31.1164C116.109 31.1034 115.598 30.8796 115.29 30.445C114.982 30.0115 114.827 29.4342 114.827 28.7164C114.827 27.8602 114.998 26.8666 115.327 25.7477C114.162 26.7488 113.125 27.5175 112.218 28.045C112.245 28.3704 112.258 28.7023 112.258 29.0418C112.258 30.6148 111.96 32.3856 111.364 34.3521C110.768 36.3185 110.012 38.1434 109.095 39.8256C108.178 41.5077 107.396 42.565 106.753 42.9996C106.547 43.1218 106.301 43.1823 106.013 43.1823C105.876 43.1823 105.649 43.152 105.335 43.0904C105.019 43.0299 104.684 42.8364 104.328 42.511C104.013 42.2396 103.856 41.9012 103.856 41.4937L103.876 41.3099C104.465 38.271 105.78 34.2904 107.821 29.3661C107.588 29.191 107.472 28.9737 107.472 28.7153C107.472 28.6072 107.52 28.4202 107.616 28.1553C107.713 27.8904 108.048 27.6569 108.623 27.4537C109.053 26.445 109.479 25.4612 109.901 24.4991C108.922 25.9726 107.898 27.3834 106.825 28.725C105.625 30.2245 104.691 31.0277 104.021 31.1358H103.918C103.275 31.1358 102.761 30.871 102.376 30.3423C102.131 30.0029 102.008 29.4948 102.008 28.8158C102.008 28.3953 102.056 27.9077 102.152 27.351C102.348 26.3931 102.623 25.4115 102.964 24.4104C101.947 25.3715 100.889 26.0958 99.7882 26.5769C98.3908 28.9239 97.0765 30.3888 95.844 30.9715C95.5831 31.0666 95.3232 31.1142 95.0623 31.1142C94.7337 31.1142 94.3604 31.0126 93.9423 30.8093C93.5242 30.6061 93.2469 30.2331 93.1104 29.6904C93.082 29.5823 93.0689 29.4807 93.0689 29.3856C93.0689 28.938 93.3015 28.4699 93.7676 27.9812C94.2741 27.4115 95.3014 26.9845 96.8505 26.6991C97.0557 26.3466 97.3636 25.7391 97.774 24.8785C98.1845 24.0169 98.5862 23.098 98.976 22.1207C99.3668 21.1445 99.631 20.3099 99.7674 19.618C99.8089 19.4277 99.8296 19.2645 99.8296 19.1293C99.8296 18.7639 99.6997 18.5802 99.4388 18.5802C99.1517 18.5802 98.6244 18.9131 97.857 19.5769C97.0896 20.2418 96.0077 21.3466 94.6104 22.8937C93.7611 24.698 92.9085 26.6861 92.0526 28.8558C91.1967 31.0266 90.4435 33.1283 89.7918 35.1629C89.1422 37.1975 88.7066 38.9131 88.4872 40.3099C88.4184 40.7845 88.3846 41.1985 88.3846 41.551C88.3846 42.2288 88.5211 42.6558 88.7951 42.8331C88.8082 42.8331 88.8158 42.8396 88.8158 42.8537C88.8158 42.8677 88.8082 42.8807 88.7951 42.8937C88.6171 43.0699 88.3562 43.1585 88.0134 43.1585C87.8901 43.1585 87.6608 43.1283 87.3257 43.0677C86.9894 43.0061 86.6106 42.8126 86.186 42.4883C85.8301 42.2169 85.6522 41.8904 85.6522 41.511C85.6522 41.4429 85.6587 41.3683 85.6718 41.2872C85.9054 38.9942 86.5626 36.2504 87.6444 33.0558C88.4992 30.5315 89.4326 28.0731 90.4369 25.6764C90.3245 25.8375 90.2164 25.9942 90.0996 26.1585C89.175 27.4677 88.2711 28.6072 87.3868 29.5769C86.5037 30.5477 85.7952 31.0591 85.2602 31.1131H85.1991C84.8836 31.1131 84.5627 31.018 84.2341 30.8288C83.9055 30.6385 83.6588 30.272 83.4939 29.7293C83.4252 29.4991 83.3913 29.2202 83.3913 28.8948C83.3913 28.4612 83.4524 27.9456 83.5758 27.3488C83.864 26.1683 84.3607 24.711 85.0659 22.9737C85.7711 21.2375 86.4185 19.9088 87.008 18.9856C86.651 19.311 86.0342 20.0169 85.1587 21.1023C84.2821 22.1877 83.3433 23.3737 82.3444 24.6634C81.3444 25.952 80.4809 27.071 79.7561 28.0202C79.7146 28.0742 79.6742 28.1218 79.6327 28.1629C79.4133 28.4472 79.2419 28.6785 79.1185 28.8548C78.9395 29.0991 78.8074 29.272 78.7179 29.3737C78.6284 29.4753 78.5563 29.5261 78.5017 29.5261H78.4188C78.3642 29.5261 78.3031 29.5196 78.2343 29.5056C78.1939 29.4926 78.1448 29.4785 78.0902 29.4656C77.2267 29.2353 76.7955 28.8072 76.7955 28.1834C76.7955 28.1564 76.7987 27.9769 76.8053 27.6439C76.8118 27.311 76.9592 26.8126 77.2474 26.1488C77.5629 25.2537 78.0203 24.0937 78.624 22.6699C79.2266 21.2461 79.7408 20.1066 80.1643 19.2515C79.3292 20.1337 78.2638 21.4418 76.9701 23.178C75.6754 24.9153 74.4255 26.725 73.2203 28.6104C73.0969 29.1802 73.0358 29.6407 73.0358 29.9942C73.0358 30.4018 73.1176 30.6656 73.2814 30.7877C73.2945 30.8018 73.3054 30.8115 73.312 30.818C73.3196 30.8245 73.3152 30.8353 73.3021 30.8483C73.1111 31.0256 72.8502 31.1131 72.5205 31.1131C72.3971 31.1131 72.1646 31.0829 71.8218 31.0212C71.4801 30.9607 71.1166 30.7672 70.7334 30.4418C70.4321 30.1975 70.2815 29.9066 70.2815 29.5672C70.2815 29.4591 70.2946 29.3499 70.323 29.2418C70.6155 27.6861 71.0326 26.1456 71.5609 24.6202C71.2029 25.1369 70.8273 25.6699 70.4256 26.2299C69.4802 27.5466 68.5621 28.6991 67.6724 29.6893C66.7816 30.6796 66.0906 31.1748 65.5971 31.1748C64.8428 31.1748 64.3297 30.951 64.0557 30.5034C63.8363 30.111 63.7271 29.6353 63.7271 29.0796C63.7271 28.9845 63.7369 28.7445 63.7577 28.3575C63.7784 27.9704 63.8909 27.405 64.0961 26.658C63.2883 27.9196 62.4728 28.9877 61.6508 29.8623C60.8287 30.7369 60.0689 31.1748 59.3703 31.1748C58.7131 31.0115 58.2404 30.6526 57.9522 30.0958C57.6651 29.5402 57.521 28.8612 57.521 28.0612C57.521 27.4148 57.5941 26.7283 57.7361 26.0039C57.7011 26.0526 57.6695 26.0991 57.6334 26.1488C56.6946 27.4645 55.7809 28.6137 54.8901 29.5975C53.9993 30.5812 53.281 31.1002 52.7329 31.1542C52.6653 31.1683 52.5965 31.1748 52.5277 31.1748C52.2941 31.1748 52.0517 31.1175 51.7985 31.0018C51.5452 30.8872 51.3258 30.6558 51.1413 30.3099C50.9557 29.9639 50.8629 29.4861 50.8629 28.8753C50.8629 27.8991 51.185 26.5056 51.829 24.6937C52.4731 22.8829 53.2569 20.9737 54.1816 18.9661C55.1062 16.9585 56.0134 15.1077 56.9042 13.4115H56.6575C55.9861 13.4115 55.2121 13.4591 54.3355 13.5542C53.5408 15.0602 52.5681 16.4029 51.4175 17.5823C50.2669 18.7629 49.1032 19.3996 47.9252 19.4948C46.6644 19.4948 45.6851 19.2342 44.9865 18.711C44.2878 18.1888 43.8773 17.5683 43.754 16.8493C43.7398 16.7142 43.7332 16.5845 43.7332 16.4634C43.7332 15.8666 43.9308 15.311 44.3293 14.7942C45.0138 14.0083 46.0749 13.3737 47.5137 12.8915C48.9514 12.4104 50.4175 12.1012 51.9109 11.9661C52.5965 10.6504 52.9797 9.47097 53.0615 8.42556C53.0746 8.31745 53.0823 8.22232 53.0823 8.14016C53.0823 7.38124 52.698 7.0007 51.9317 7.0007C51.6577 7.0007 51.3356 7.04826 50.9655 7.1434C49.2254 7.60502 47.4733 8.59529 45.7059 10.1142C43.9396 11.6342 42.4735 13.3369 41.3097 15.2212C40.1722 17.0526 39.6035 18.7348 39.6035 20.2677V20.431C39.6853 21.3131 40.1406 22.0688 40.9702 22.7002C41.7988 23.3304 42.7409 23.925 43.7955 24.4807C44.8904 25.0375 45.8423 25.6342 46.6513 26.271C47.4591 26.9088 47.8707 27.6753 47.8838 28.5704C47.7877 29.5607 47.0923 30.5575 45.7987 31.5607C44.504 32.565 42.9494 33.4266 41.1351 34.1445C39.3196 34.8634 37.5915 35.2969 35.9475 35.4472C35.632 35.4742 35.3318 35.4872 35.0436 35.4872C33.8384 35.4872 32.9061 35.2093 32.2489 34.6526C31.4269 33.8656 31.0164 32.991 31.0164 32.0277C31.0164 31.8915 31.0535 31.5056 31.1289 30.8677C31.2042 30.2299 32.0229 29.4158 33.584 28.4266C34.1997 28.0602 35.0392 27.6839 36.1014 27.2969C37.1625 26.911 38.2214 26.6493 39.276 26.5131C39.5642 26.4731 39.8305 26.4526 40.0773 26.4526C40.7628 26.4526 41.3174 26.5888 41.742 26.8602C42.2475 27.2537 42.5564 27.7488 42.6656 28.3456C42.6787 28.4266 42.6863 28.5077 42.6863 28.5899C42.6863 28.7531 42.6394 28.9358 42.5422 29.1402C42.4462 29.3434 42.1656 29.5672 41.6995 29.8115H41.6383V29.7196C41.6383 29.7002 41.658 29.6688 41.6995 29.6288C41.9462 29.4526 42.1241 29.2688 42.2333 29.0785C42.2748 28.9975 42.2955 28.9229 42.2955 28.8548C42.2955 28.7466 42.254 28.6375 42.1722 28.5293C41.8436 28.2039 41.3359 28.0407 40.6515 28.0407C40.3775 28.0407 39.8677 28.0991 39.121 28.2137C38.3743 28.3283 37.3918 28.631 36.1724 29.1185C34.953 29.6072 34.0491 30.0818 33.4607 30.5423C32.8166 31.058 32.4061 31.458 32.2282 31.7423C32.1321 31.9056 32.0841 32.0472 32.0841 32.1693C32.0841 32.2645 32.1321 32.3661 32.2282 32.4742C32.3242 32.5823 32.536 32.671 32.8646 32.7391C33.2216 32.8202 33.6452 32.8612 34.1386 32.8612C34.8504 32.8612 35.8612 32.7531 37.1691 32.5358C38.4769 32.3185 39.9288 31.858 41.5248 31.152C43.1208 30.4472 44.2747 29.538 44.9865 28.4256C45.1371 28.1402 45.2125 27.8688 45.2125 27.6115C45.2125 27.1499 44.9253 26.6688 44.3489 26.1672C43.7736 25.6656 42.9112 25.1164 41.7606 24.5196C40.7606 23.9899 39.8218 23.4104 38.9452 22.7802C38.0686 22.1499 37.466 21.4137 37.1374 20.5726C36.9998 20.111 36.9311 19.6299 36.9311 19.1283C36.9311 18.0299 37.3219 16.6872 38.1024 15.1002C38.8841 13.5131 40.0991 11.8818 41.7497 10.2072C43.4003 8.53151 45.0956 7.26664 46.8347 6.41259C47.958 5.91097 49.1086 5.66016 50.2865 5.66016C50.5605 5.66016 51.126 5.69799 51.9819 5.77151C52.8377 5.8461 53.7176 6.29799 54.6215 7.12502C55.3071 7.74881 55.6488 8.55637 55.6488 9.54664C55.6488 9.85907 55.6139 10.191 55.5462 10.5434C55.4643 10.9239 55.3333 11.3304 55.1554 11.7639C55.9501 11.7099 56.7033 11.6829 57.4162 11.6829H57.8474C58.2852 10.8969 58.6618 10.2591 58.9773 9.77043C59.2098 9.39097 59.5526 9.2007 60.0045 9.2007C60.0449 9.2007 60.2021 9.21475 60.4772 9.24178C60.7512 9.2688 61.1148 9.43529 61.5667 9.74016C62.0187 10.045 62.2446 10.3737 62.2446 10.7272C62.2446 10.7402 62.237 10.751 62.2239 10.7575C62.2108 10.765 62.1955 10.7672 62.1824 10.7672C62.1551 10.7542 62.1278 10.7466 62.1005 10.7466C61.8265 10.7466 61.4357 11.1002 60.9292 11.805C63.3953 11.8191 65.9661 11.9953 68.6451 12.3348C71.3229 12.6742 73.5041 13.0537 75.1896 13.4742C75.3392 13.5142 75.4156 13.5423 75.4156 13.5553H75.1896C71.9976 13.2429 69.121 13.0872 66.56 13.0872C63.9989 13.0872 61.8276 13.1348 60.0056 13.2299C59.0188 14.912 58.0363 16.8515 57.057 19.0493C56.0778 21.2472 55.2492 23.271 54.5713 25.1229C53.8934 26.9748 53.5539 28.1304 53.5539 28.592C53.5539 28.7002 53.5877 28.7553 53.6565 28.7553C53.8061 28.7553 54.1565 28.4872 54.7045 27.951C55.2525 27.4158 55.9719 26.6353 56.8616 25.6115C57.3605 25.0385 57.8343 24.4839 58.2939 23.9412C58.3518 23.7704 58.4107 23.5985 58.4751 23.4245C59.1116 21.7023 59.8626 20.1758 60.725 18.8461C61.5875 17.5175 62.4029 16.6893 63.1693 16.3639C63.4564 16.2688 63.7315 16.2212 63.9924 16.2212C64.6081 16.2212 65.1998 16.5304 65.7696 17.1466C66.3373 17.7639 66.739 18.6148 66.9716 19.7002C67.2456 19.1985 67.513 18.7175 67.7728 18.2558C68.0054 17.8623 68.3558 17.6656 68.8208 17.6656C68.8623 17.6656 69.0162 17.6731 69.2826 17.6861C69.5501 17.6991 69.9125 17.8558 70.3721 18.1542C70.8306 18.4526 71.0598 18.7845 71.0598 19.151V19.1715C71.0457 19.1845 71.0293 19.1953 71.0085 19.2018C70.9889 19.2093 70.9649 19.2115 70.9365 19.2115C70.5937 19.2256 70.1734 19.6429 69.6734 20.4634C69.1734 21.2839 68.6767 22.271 68.1844 23.4234C67.691 24.5769 67.2729 25.658 66.9312 26.6688C66.5884 27.6796 66.4181 28.3412 66.4181 28.6526C66.4181 28.7337 66.4443 28.7748 66.5 28.7748C66.6375 28.7748 66.9901 28.4969 67.5578 27.9402C68.1265 27.3845 68.859 26.5942 69.7564 25.5704C70.6537 24.5466 71.4889 23.5737 72.2629 22.6504C72.2967 22.6104 72.3262 22.5748 72.3589 22.5358C73.2093 20.5056 74.158 18.5748 75.2115 16.7499C75.444 16.3564 75.7933 16.1596 76.2595 16.1596C76.2878 16.1596 76.4341 16.1629 76.7016 16.1693C76.9679 16.1769 77.3173 16.3218 77.7496 16.6072C78.1808 16.8926 78.4242 17.2245 78.4788 17.6039C78.4788 17.618 78.4755 17.631 78.469 17.6439C78.4613 17.658 78.4515 17.672 78.4384 17.685H78.3565C77.9996 17.698 77.3697 18.5056 76.4658 20.1066C75.5619 21.7066 74.6645 23.8645 73.7748 26.5769C74.7748 24.9077 75.9418 23.1553 77.278 21.3175C78.6131 19.4796 79.863 18.045 81.0268 17.0137C81.4645 16.6342 81.8488 16.3834 82.1774 16.2612C82.3422 16.2072 82.5125 16.1802 82.6916 16.1802C82.9099 16.1802 83.137 16.2137 83.3695 16.2818C83.7527 16.4039 84.0747 16.5866 84.3345 16.832C84.5943 17.0764 84.7384 17.3337 84.7657 17.605V17.645C84.7657 17.6591 84.7581 17.6731 84.745 17.6861H84.6424C84.4502 17.7131 84.0911 18.1639 83.5638 19.0396C83.0365 19.9142 82.4568 20.9899 81.828 22.2645C81.1982 23.5402 80.6425 24.7942 80.1633 26.0288C80.2866 25.8526 80.4296 25.6493 80.5945 25.4191C81.2931 24.4429 82.1763 23.245 83.245 21.8277C84.3127 20.4104 85.3912 19.1358 86.4807 18.0029C87.5702 16.871 88.4708 16.2429 89.1826 16.1207H89.3267C89.8059 16.1207 90.2448 16.2493 90.6422 16.5066C90.9162 16.6839 91.0526 16.9002 91.0526 17.1575C91.0526 17.3066 91.0046 17.4699 90.9085 17.6461C90.7721 17.8634 90.3878 18.538 89.7579 19.671C89.128 20.8039 88.4567 22.1639 87.7449 23.7499C87.0331 25.3369 86.4851 26.911 86.1019 28.471V28.5726C86.1019 28.6537 86.1292 28.6948 86.1838 28.6948C86.2657 28.6948 86.4578 28.5629 86.7591 28.298C87.0604 28.0331 87.5429 27.5391 88.2077 26.8126C88.8726 26.0872 89.5603 25.3034 90.2732 24.4623C90.783 23.8591 91.2568 23.298 91.6978 22.7758C92.832 20.2612 93.8298 18.2515 94.6912 16.751C94.9095 16.3575 95.2523 16.1607 95.7184 16.1607C95.7457 16.1607 95.8931 16.1639 96.1605 16.1704C96.4269 16.178 96.7795 16.3229 97.2184 16.6083C97.6561 16.8937 97.8963 17.2256 97.9378 17.605V17.645C97.9378 17.6591 97.9247 17.6731 97.8963 17.6861H97.8144C97.417 17.7402 96.7457 18.6699 95.8014 20.4742C96.6911 19.3477 97.6408 18.351 98.6463 17.4829C99.6528 16.6148 100.465 16.1802 101.081 16.1802C102.012 16.4245 102.533 17.0483 102.642 18.0526C102.655 18.2288 102.663 18.4115 102.663 18.6018C102.663 19.4839 102.461 20.5315 102.057 21.7456C101.652 22.9596 101.108 24.1899 100.423 25.4385C101.635 24.6634 102.63 23.9023 103.42 23.152C103.58 22.7477 103.744 22.3402 103.926 21.9283C104.754 20.0493 105.613 18.3369 106.504 16.791C106.737 16.3985 107.086 16.2018 107.552 16.2018C107.579 16.2018 107.727 16.205 107.994 16.2115C108.262 16.2191 108.618 16.3683 109.063 16.6591C109.508 16.951 109.752 17.2872 109.792 17.6666V17.7066C109.792 17.7207 109.782 17.7304 109.762 17.7369C109.742 17.7445 109.71 17.7466 109.67 17.7466C109.218 17.8277 108.444 18.9131 107.348 21.0018C106.252 23.0915 105.335 25.5672 104.595 28.4288C104.581 28.4829 104.574 28.5304 104.574 28.5715C104.574 28.6937 104.614 28.7542 104.697 28.7542C104.78 28.7542 104.968 28.6385 105.263 28.4083C105.558 28.178 106.043 27.6958 106.721 26.9639C107.399 26.231 108.108 25.432 108.848 24.5629C109.588 23.6948 110.248 22.9045 110.831 22.192C110.908 22.0991 110.972 22.0191 111.042 21.9337C111.979 19.8569 112.895 17.8958 113.789 16.058C115.439 12.6666 116.532 10.5639 117.066 9.74989C117.298 9.37043 117.641 9.18016 118.093 9.18016C118.134 9.18016 118.291 9.18989 118.566 9.21043C118.84 9.23097 119.196 9.39313 119.635 9.69908C120.072 10.0039 120.306 10.3402 120.333 10.7066C120.333 10.7207 120.326 10.7304 120.313 10.7369C120.299 10.7434 120.285 10.7466 120.272 10.7466H120.253C119.896 10.7466 119.283 11.4829 118.413 12.9542C117.543 14.4266 116.533 16.3726 115.383 18.7942C114.233 21.2158 113.075 23.8029 111.911 26.5564C111.924 26.5834 111.942 26.631 111.962 26.6991C111.983 26.7672 112.004 26.8385 112.024 26.9131C112.044 26.9877 112.061 27.0385 112.075 27.0656C113.521 26.1564 114.742 25.2991 115.74 24.4958C116.24 23.1056 116.806 21.7402 117.447 20.4018C118.138 18.9575 118.772 17.7402 119.348 16.7488C119.58 16.3553 119.929 16.1585 120.396 16.1585C120.436 16.1585 120.591 16.1661 120.857 16.1791C121.125 16.1931 121.487 16.3488 121.946 16.6472C122.405 16.9456 122.635 17.2775 122.635 17.6439C122.635 17.658 122.631 17.6677 122.625 17.6742C122.617 17.6807 122.607 17.6915 122.593 17.7045H122.511C122.183 17.7326 121.74 18.2061 121.186 19.1283C120.63 20.0515 120.066 21.1596 119.491 22.4558C118.915 23.751 118.425 24.9823 118.022 26.1488C117.617 27.3153 117.416 28.0948 117.416 28.4883C117.416 28.5423 117.436 28.5693 117.478 28.5693C117.601 28.5693 117.909 28.3488 118.402 27.9077C118.896 27.4666 119.535 26.8288 120.323 25.9953C121.111 25.1607 121.867 24.3304 122.593 23.5023C123.455 21.6029 124.12 20.1931 124.586 19.2699C125.052 18.3477 125.503 17.5066 125.942 16.7466C126.175 16.3531 126.524 16.1564 126.99 16.1564C127.031 16.1564 127.186 16.1639 127.452 16.1769C127.718 16.191 128.082 16.3466 128.542 16.645C129 16.9434 129.229 17.2688 129.229 17.6223C129.229 17.6353 129.226 17.6493 129.219 17.6623C129.212 17.6764 129.202 17.6861 129.189 17.6926C129.175 17.6991 129.149 17.7023 129.107 17.7023C128.641 17.7434 127.97 18.6277 127.094 20.3575C126.217 22.0872 125.224 24.2072 124.115 26.7164L123.663 27.7337C125.347 26.4861 126.756 25.2385 127.885 23.9899C129.015 22.7423 129.841 21.765 130.361 21.0602C130.526 20.8569 130.656 20.6937 130.752 20.5715H130.999L131 20.5748ZM50.5409 14.165C48.5551 14.4634 47.1436 14.8602 46.3085 15.3553C45.4723 15.8504 45.0138 16.2948 44.9319 16.6883C44.9046 16.7834 44.8915 16.871 44.8915 16.9531C44.8915 17.2926 45.1175 17.4623 45.5694 17.4623C45.5825 17.4623 45.7408 17.4591 46.0421 17.4526C46.3434 17.4461 46.9526 17.1683 47.8707 16.618C48.7888 16.0677 49.6785 15.2515 50.542 14.1661L50.5409 14.165ZM66.7106 20.2083C66.0666 18.9877 65.4367 18.3769 64.8199 18.3769C64.7784 18.3769 64.5939 18.3942 64.2653 18.4277C63.9367 18.4623 63.5011 18.9293 62.9608 19.832C62.4193 20.7348 61.9466 21.792 61.5427 23.0061C61.1388 24.2202 60.8233 25.3434 60.5984 26.3737C60.3724 27.405 60.26 28.0429 60.26 28.2872C60.26 28.5996 60.355 28.7553 60.5471 28.7553C60.5602 28.7553 60.629 28.7456 60.7523 28.725C60.8757 28.7056 61.1159 28.5499 61.4717 28.2569C61.8276 27.965 62.2075 27.6093 62.6125 27.1888C63.0164 26.7683 63.3996 26.351 63.7631 25.938C64.1256 25.5239 64.4236 25.1748 64.6561 24.8893C65.0808 23.6418 65.7653 22.0818 66.7106 20.2093V20.2083ZM96.1332 27.778C95.7763 27.832 95.4204 27.951 95.0645 28.1337C94.7086 28.3164 94.4488 28.5034 94.284 28.6937C94.2152 28.7748 94.1813 28.8429 94.1813 28.8969C94.1813 28.978 94.2436 29.0396 94.3669 29.0796H94.4903C94.7228 29.0796 94.9804 28.9683 95.261 28.7445C95.5416 28.5207 95.833 28.1985 96.1354 27.778H96.1332ZM111.665 28.4083C111.447 28.5715 111.207 28.7272 110.946 28.8764C109.111 33.3391 107.816 36.9953 107.063 39.8439L107.023 40.0072C106.981 40.1153 106.955 40.2104 106.941 40.2926V40.4753C106.955 40.4883 106.968 40.4958 106.981 40.4958C107.01 40.4958 107.056 40.472 107.125 40.4245C107.194 40.3769 107.311 40.258 107.475 40.0688C107.954 39.5672 108.529 38.7261 109.2 37.5456C109.872 36.3661 110.461 34.9747 110.967 33.3747C111.433 31.9099 111.665 30.3834 111.665 28.7964V28.4104V28.4083ZM118.713 32.5791C117.083 33.9488 115.717 35.4656 114.614 37.1261C113.511 38.7877 112.96 40.1066 112.96 41.0839C112.96 41.5315 113.063 41.8775 113.268 42.1218C113.364 42.2299 113.481 42.285 113.617 42.285C113.782 42.285 114.011 42.1791 114.305 41.9693C114.6 41.7585 115.008 41.138 115.528 40.1077C115.871 39.3477 116.473 37.9369 117.336 35.8753C117.76 34.858 118.219 33.7596 118.712 32.5791H118.713Z" fill="url(#paint0_linear_1009_5143)"/>
<path d="M10.2213 25.7217L2.57197 16.5801L0 23.5466L9.48113 34.8774L24.1062 32.2752L26.6782 25.3087L14.8783 27.4082C13.1328 27.7185 11.3533 27.0741 10.2213 25.7217Z" fill="url(#paint1_linear_1009_5143)"/>
<path d="M22.342 0.046875L7.71699 2.64904L5.14502 9.61552L16.9448 7.51606C18.6904 7.20579 20.4698 7.85012 21.6019 9.20255L29.2512 18.3442L31.8232 11.3777L22.342 0.046875Z" fill="url(#paint2_linear_1009_5143)"/>
<path d="M5.14392 9.61384L14.625 20.9447L24.1062 32.2755L26.6781 25.309L17.197 13.9782L7.71589 2.64844L5.14392 9.61384Z" fill="url(#paint3_linear_1009_5143)"/>
</g>
<defs>
<linearGradient id="paint0_linear_1009_5143" x1="64.0896" y1="52.9121" x2="96.4041" y2="-3.60821" gradientUnits="userSpaceOnUse">
<stop stop-color="#010039"/>
<stop offset="0.15" stop-color="#00356C"/>
<stop offset="0.29" stop-color="#006399"/>
<stop offset="0.44" stop-color="#0088BD"/>
<stop offset="0.58" stop-color="#00A5D9"/>
<stop offset="0.72" stop-color="#00BAED"/>
<stop offset="0.86" stop-color="#00C6F9"/>
<stop offset="1" stop-color="#00CBFE"/>
</linearGradient>
<linearGradient id="paint1_linear_1009_5143" x1="23.9273" y1="32.2136" x2="0.537871" y2="23.5798" gradientUnits="userSpaceOnUse">
<stop stop-color="#010039"/>
<stop offset="0.15" stop-color="#00356C"/>
<stop offset="0.29" stop-color="#006399"/>
<stop offset="0.44" stop-color="#0088BD"/>
<stop offset="0.58" stop-color="#00A5D9"/>
<stop offset="0.72" stop-color="#00BAED"/>
<stop offset="0.86" stop-color="#00C6F9"/>
<stop offset="1" stop-color="#00CBFE"/>
</linearGradient>
<linearGradient id="paint2_linear_1009_5143" x1="8.33802" y1="2.87785" x2="31.0513" y2="11.262" gradientUnits="userSpaceOnUse">
<stop stop-color="#010039"/>
<stop offset="0.15" stop-color="#00356C"/>
<stop offset="0.29" stop-color="#006399"/>
<stop offset="0.44" stop-color="#0088BD"/>
<stop offset="0.58" stop-color="#00A5D9"/>
<stop offset="0.72" stop-color="#00BAED"/>
<stop offset="0.86" stop-color="#00C6F9"/>
<stop offset="1" stop-color="#00CBFE"/>
</linearGradient>
<linearGradient id="paint3_linear_1009_5143" x1="6.90163" y1="6.22064" x2="29.0384" y2="34.2769" gradientUnits="userSpaceOnUse">
<stop stop-color="#010039"/>
<stop offset="0.15" stop-color="#00356C"/>
<stop offset="0.29" stop-color="#006399"/>
<stop offset="0.44" stop-color="#0088BD"/>
<stop offset="0.58" stop-color="#00A5D9"/>
<stop offset="0.72" stop-color="#00BAED"/>
<stop offset="0.86" stop-color="#00C6F9"/>
<stop offset="1" stop-color="#00CBFE"/>
</linearGradient>
<clipPath id="clip0_1009_5143">
<rect width="131" height="44" fill="white"/>
</clipPath>
</defs>
</svg>
