<svg width="20" height="20" viewBox="0 0 20 20" fill="none" xmlns="http://www.w3.org/2000/svg">
<path d="M10 0C4.48594 0 0 4.48594 0 10C0 15.5141 4.48594 20 10 20C15.5141 20 20 15.5141 20 10C20 4.48594 15.5141 0 10 0ZM14.7557 14.7557C14.5995 14.9119 14.3876 14.9996 14.1667 14.9996C13.9457 14.9996 13.7339 14.9119 13.5776 14.7557L11.3464 12.525C10.4037 13.1736 9.25272 13.4466 8.11921 13.2903C6.98569 13.134 5.9515 12.5598 5.21958 11.6802C4.48766 10.8007 4.11085 9.6794 4.16309 8.53636C4.21533 7.39331 4.69285 6.31105 5.50195 5.50195C6.31105 4.69285 7.39331 4.21533 8.53636 4.16309C9.6794 4.11085 10.8007 4.48766 11.6802 5.21958C12.5598 5.9515 13.134 6.98569 13.2903 8.11921C13.4466 9.25272 13.1736 10.4037 12.525 11.3464L14.7557 13.5776C14.9119 13.7339 14.9996 13.9457 14.9996 14.1667C14.9996 14.3876 14.9119 14.5995 14.7557 14.7557Z" fill="#00CBFE"/>
<path d="M8.7487 11.6693C10.3595 11.6693 11.6654 10.3634 11.6654 8.7526C11.6654 7.14177 10.3595 5.83594 8.7487 5.83594C7.13787 5.83594 5.83203 7.14177 5.83203 8.7526C5.83203 10.3634 7.13787 11.6693 8.7487 11.6693Z" fill="#00CBFE"/>
</svg>
