<svg width="12" height="12" viewBox="0 0 12 12" fill="none" xmlns="http://www.w3.org/2000/svg">
<path d="M4.57064 0.631579C4.97471 0.631579 5.36223 0.797932 5.64795 1.09404C5.93367 1.39015 6.09418 1.79176 6.09418 2.21053V5.68421H9.44598C9.85005 5.68421 10.2376 5.85056 10.5233 6.14667C10.809 6.44278 10.9695 6.84439 10.9695 7.26316V10.4211C10.9695 10.8398 10.809 11.2414 10.5233 11.5375C10.2376 11.8336 9.85005 12 9.44598 12H1.52355C1.11948 12 0.731956 11.8336 0.446236 11.5375C0.160516 11.2414 0 10.8398 0 10.4211V2.21053C0 1.79176 0.160516 1.39015 0.446236 1.09404C0.731956 0.797932 1.11948 0.631579 1.52355 0.631579H4.57064ZM4.87535 6.94737H1.21884V10.4211C1.21884 10.5048 1.25094 10.5851 1.30808 10.6443C1.36523 10.7036 1.44273 10.7368 1.52355 10.7368H4.87535V6.94737ZM9.44598 6.94737H6.09418V10.7368H9.44598C9.5268 10.7368 9.6043 10.7036 9.66145 10.6443C9.71859 10.5851 9.75069 10.5048 9.75069 10.4211V7.26316C9.75069 7.17941 9.71859 7.09908 9.66145 7.03986C9.6043 6.98064 9.5268 6.94737 9.44598 6.94737ZM4.57064 1.89474H1.52355C1.44273 1.89474 1.36523 1.92801 1.30808 1.98723C1.25094 2.04645 1.21884 2.12677 1.21884 2.21053V5.68421H4.87535V2.21053C4.87535 2.12677 4.84324 2.04645 4.7861 1.98723C4.72895 1.92801 4.65145 1.89474 4.57064 1.89474ZM9.06997 0.00442103L9.14127 0C9.29054 2.04067e-05 9.43461 0.0568144 9.54615 0.15961C9.6577 0.262405 9.72896 0.404052 9.74643 0.557684L9.75069 0.631579V1.89474H10.9695C11.1188 1.89476 11.2629 1.95155 11.3744 2.05435C11.486 2.15714 11.5572 2.29879 11.5747 2.45242L11.5789 2.52632C11.5789 2.68101 11.5241 2.83032 11.4249 2.94592C11.3257 3.06152 11.1891 3.13537 11.0408 3.15347L10.9695 3.15789H9.75069V4.42105C9.75067 4.57575 9.69587 4.72506 9.59668 4.84066C9.49749 4.95626 9.36082 5.03011 9.21258 5.04821L9.14127 5.05263C8.99201 5.05261 8.84794 4.99582 8.73639 4.89302C8.62485 4.79023 8.55359 4.64858 8.53612 4.49495L8.53186 4.42105V3.15789H7.31302C7.16375 3.15787 7.01968 3.10108 6.90814 2.99829C6.79659 2.89549 6.72533 2.75384 6.70787 2.60021L6.7036 2.52632C6.70362 2.37162 6.75842 2.22231 6.85761 2.10671C6.9568 1.99111 7.09348 1.91726 7.24172 1.89916L7.31302 1.89474H8.53186V0.631579C8.53188 0.476884 8.58668 0.327577 8.68587 0.211976C8.78505 0.0963746 8.92173 0.0225203 9.06997 0.00442103Z" fill="#2B4465"/>
</svg>
