<svg width="30" height="30" viewBox="0 0 30 30" fill="none" xmlns="http://www.w3.org/2000/svg">
<circle cx="15" cy="15" r="15" fill="white"/>
<path d="M24.1525 9.75C23.4788 10.0563 22.7525 10.2575 22 10.3537C22.77 9.89 23.365 9.155 23.645 8.27125C22.9188 8.70875 22.1138 9.015 21.265 9.19C20.5738 8.4375 19.6025 8 18.5 8C16.4438 8 14.7638 9.68 14.7638 11.7537C14.7638 12.0512 14.7988 12.34 14.86 12.6113C11.745 12.4538 8.97125 10.9575 7.125 8.69125C6.80125 9.2425 6.6175 9.89 6.6175 10.5725C6.6175 11.8763 7.27375 13.0312 8.28875 13.6875C7.6675 13.6875 7.09 13.5125 6.5825 13.25V13.2762C6.5825 15.0962 7.8775 16.6188 9.5925 16.96C9.04189 17.1107 8.46384 17.1316 7.90375 17.0213C8.14141 17.7672 8.60685 18.4199 9.23464 18.8876C9.86244 19.3553 10.621 19.6145 11.4038 19.6288C10.0769 20.6791 8.43225 21.2469 6.74 21.2387C6.4425 21.2387 6.145 21.2212 5.8475 21.1862C7.51 22.2537 9.4875 22.875 11.605 22.875C18.5 22.875 22.2888 17.1525 22.2888 12.1912C22.2888 12.025 22.2888 11.8675 22.28 11.7012C23.015 11.1762 23.645 10.5113 24.1525 9.75Z" fill="#40D8FE"/>
</svg>
