<svg width="30" height="30" viewBox="0 0 30 30" fill="none" xmlns="http://www.w3.org/2000/svg">
<rect width="30" height="30" rx="15" fill="white"/>
<path d="M19.9085 9.35547H10.0914C9.69912 9.35547 9.31065 9.43277 8.94822 9.58297C8.58579 9.73316 8.25651 9.9533 7.97919 10.2308C7.70187 10.5083 7.48195 10.8377 7.332 11.2003C7.18204 11.5628 7.105 11.9513 7.10526 12.3436V17.6528C7.105 18.0452 7.18204 18.4337 7.332 18.7962C7.48195 19.1587 7.70187 19.4882 7.97919 19.7657C8.25651 20.0432 8.58579 20.2633 8.94822 20.4135C9.31065 20.5637 9.69912 20.641 10.0914 20.641H19.9085C20.3009 20.641 20.6893 20.5637 21.0518 20.4135C21.4142 20.2633 21.7435 20.0432 22.0208 19.7657C22.2981 19.4882 22.518 19.1587 22.668 18.7962C22.8179 18.4337 22.895 18.0452 22.8947 17.6528V12.3436C22.895 11.9513 22.8179 11.5628 22.668 11.2003C22.518 10.8377 22.2981 10.5083 22.0208 10.2308C21.7435 9.9533 21.4142 9.73316 21.0518 9.58297C20.6893 9.43277 20.3009 9.35547 19.9085 9.35547ZM12.9197 17.418V12.5785L17.0803 14.9982L12.9197 17.418Z" fill="#00CBFE"/>
</svg>
